<svg id="Слой_1" xmlns="http://www.w3.org/2000/svg" viewBox="0 0 162.5 150.7"><style>.st0,.st1{fill:none;stroke:#018ddc;stroke-width:1.7352;stroke-miterlimit:10}.st1{stroke-width:.25}</style><path class="st0" d="M37.9 85.4c-2.5-10.9-1.7-22.7 2.9-33.8C52.7 23.3 85.2 10 113.5 21.9s41.6 44.4 29.7 72.6-44.4 41.6-72.6 29.7c-7.5-3.1-13.9-7.7-19.1-13.2"/><path class="st0" d="M39.2 83.3s-29.7 45.1-28.9 44.4c.8-.7 43.8-17.2 43.8-17.2m46.5-81c3.2.2 11.1 1.1 18.9 6.8 8.2 6 11.4 13.8 12.5 16.8"/><path class="st1" d="M41.3 89.6c-2.5-10.9-1.7-22.7 2.9-33.8C56.1 27.5 88.6 14.2 116.9 26s41.6 44.4 29.7 72.6-44.4 41.6-72.6 29.7c-7.5-3.1-13.9-7.7-19.1-13.2"/><path class="st1" d="M42.6 87.4s-29.7 45.1-28.9 44.4c.8-.7 43.8-17.2 43.8-17.2m46.5-81c3.2.2 11.1 1.1 18.9 6.8 8.2 6 11.4 13.8 12.5 16.8"/></svg>