<svg id="Слой_1" xmlns="http://www.w3.org/2000/svg" viewBox="0 0 198.4 198.4"><style>.st0{fill:#74c01a}.st1{fill:#ce13e9}.st2{fill:#00a472}.st3{fill:#58dc80}.st4{fill:#fe69db}.st5{fill:#00889a}.st6{fill:#28bac5}.st7{fill:#3a3937}.st8{fill:#008dae}.st9{fill:#ad7bfe}</style><path class="st0" d="M34.8 52.3c-2.9-2.7-5.5-5.5-8.1-8.5-2.8-3.2-5.5-6.5-8-9.9-3-4-5.7-8.2-8.3-12.5-2.1-3.4-4.1-6.9-5.8-10.7C3.9 9.3 3 7.9 2.8 6.2h.5c3.5 1.5 7 3 10.4 4.5 5 2.1 9.8 4.6 14.7 7 7.8 3.9 15.5 8.3 22.9 12.9 5.5 3.5 10.8 7.1 16 11 2.7 2 5.2 4.3 7.9 6.4 4.1 3.3 7.8 7 11.5 10.8 3.3 3.4 6.3 7.1 9 10.9 2.7 3.7 5.1 7.7 7.1 11.8.5 1 1 1.9 1.3 3-.5.1-.7-.3-.9-.6-5.2-7.3-12.1-12.6-19.8-17-11.7-6.6-24.5-10.5-37.6-13-3.3-.6-6.6-1.1-9.9-1.4-.4.1-.7-.1-1.1-.2z"/><path class="st1" d="M194.7 23.5c-2.8.2-5.4.9-8.1 1.5-5 1.1-9.9 2.7-14.6 4.6-4.1 1.6-7.9 3.6-11.6 6-3.9 2.5-7.5 5.3-10.6 8.7-3.1 3.4-5.8 7-7.3 11.3-1.8 1.1-3.8 1.9-5.7 2.9-4 2.2-7.7 4.9-10.7 8.4-3.1 3.7-5 8-5.9 12.7-.1.4.1 1-.6 1.1 0-4.2.7-8.2 1.8-12.2 1.3-4.9 3.4-9.5 6.2-13.7 2.7-4.1 6.1-7.6 9.8-10.9 4.8-4.2 10.2-7.4 15.8-10.1 6.4-3.1 13.2-5.3 20.1-7.1 3.7-.9 7.4-1.7 11.1-2.3 3-.4 6-1 9-1 .4 0 .8-.2 1.2-.2.1 0 .1.2.1.3z"/><path class="st2" d="M104.1 84.8c1.9 2.8 3.5 5.8 4.7 9 .3.7.2.9-.6 1.1-3.3.9-6.7 1.4-10.1 1.8-3.3.4-6.5.3-9.8.1-5.1-.3-10-1.5-14.7-3.4-4.9-1.9-9.3-4.6-13.5-7.7-3.3-2.5-6.3-5.3-9-8.3-4.4-4.9-8.4-10.3-11.6-16.1-1.5-2.6-3.2-5.3-4.2-8.3 1 0 1.6.9 2.3 1.5 7.3 6.7 15.2 12.4 23.9 17.1 11.9 6.5 24.6 10.6 38 12.5 1.5.3 3.1.2 4.6.7z"/><path class="st3" d="M104.1 84.8c-2.8.1-5.6-.5-8.4-1-5.9-1-11.6-2.5-17.3-4.4-8-2.7-15.6-6.3-22.7-10.8-4.3-2.7-8.4-5.6-12.4-8.8-2-1.6-3.8-3.3-5.7-4.9-.8-.7-1.5-1.3-2.3-1.9-.2-.2-.3-.5-.5-.7 1.4-.3 2.8.1 4.2.3 4.1.6 8.2 1.3 12.3 2.2 3.7.8 7.3 1.8 10.9 2.9 6.8 2 13.4 4.7 19.7 8.1 4.2 2.3 8.2 4.9 12 7.9 3.8 3.1 7.2 6.7 10 10.7 0 .1.1.1.2.1v.3z"/><path class="st4" d="M119.6 80.6c.3-1.4.6-2.8 1-4.1 1.5-5.3 4.4-9.6 8.5-13.2 3.9-3.3 8.3-5.8 13-7.7h.3c-1.7 4.8-2.7 9.8-3.5 14.8-1.4 8.8-2.6 17.6-4.9 26.3-2 7.5-5.2 14.5-9.8 20.8-1.4 2-3 3.8-4.7 5.6-.4-.5-.2-.9-.1-1.4 2-6.1 2.6-12.4 2.1-18.8-.4-5.9-1.3-11.7-2.1-17.5-.1-1-.2-2 0-3 .1-.7.2-1.2.2-1.8z"/><path class="st5" d="M80.7 109c3.5-2.4 7.3-4.2 11.3-5.6 4.1-1.5 8.4-2.4 12.7-3 1.3-.2 2.7-.5 4.1-.2-1.5 6.7-4.1 12.8-7.8 18.6-2.5 3.9-5.4 7.6-8.5 11.1-2.8 3.1-5.7 6-8.8 8.7-2.8 2.5-5.8 4.7-8.7 7.1-.1.1-.2.1-.3.1-.4-.4-.1-.9 0-1.3 2.5-7.4 4.3-14.9 5.3-22.6.5-3.7.7-7.5.6-11.3 0-.6 0-1.1.1-1.6z"/><path class="st6" d="M80.7 109c.4.3.2.7.2 1.1.2 6-.5 11.8-1.6 17.7-1.1 5.9-2.6 11.7-4.6 17.4-.1.2-.1.5-.1.7-.2.2-.3.5-.5.7-.9 1.1-2.2 1.7-3.3 2.5-5.9 4.1-12 7.9-18.5 11-.5.2-.9.6-1.5.5.4-2.4 1.1-4.7 1.7-7 1.9-6.7 4.4-13.1 7.6-19.2 2.8-5.3 6-10.2 9.8-14.8 2.2-2.7 4.7-5.1 7.2-7.6 1.1-1.3 2.4-2.1 3.6-3z"/><path class="st7" d="M50.8 160.4c6.9-3.4 13.4-7.3 19.7-11.6 1.2-.8 2.3-1.8 3.6-2.4-.4 2-1.3 3.8-2 5.6-1.8 4.5-3.9 9-6.3 13.2-3.2 5.9-6.7 11.7-10.7 17.1-2.3 3.1-4.6 6.1-7 9.2-.1.2-.2.4-.5.3-.3-.1-.1-.3-.1-.5 0-3.7.2-7.3.4-11 .1-2 .3-4 .5-6 .3-2.6.6-5.1 1-7.7.4-2 .8-4.1 1.4-6.2z"/><path class="st8" d="M99.8 69c1.4-1.7 2.4-3.3 3.2-4.9 1-2.1 1.5-4.2 1.8-6.5.6-4.1.6-8.3.7-12.5.1-3.2.5-6.4 1.8-9.4 1.7-3.9 4.6-6.5 8.5-8.1 3-1.3 6.2-1.9 9.4-1.7 3.6.2 7.1 1 10.5 2 4.3 1.2 8.5 2.7 13.1 3.4-.3.2-.5.4-.7.4-3.4.3-6.8.1-10.3-.1-4.6-.3-9.3-.8-13.8.8-3.3 1.2-5.7 3.4-7.6 6.3-2.1 3.2-2.9 6.9-3.9 10.5-1.2 4.5-2.6 9-5.4 12.9-1.8 2.5-4 4.7-6.4 6.6-.1.1-.3.1-.9.3z"/><path class="st9" d="M119.5 82.3c.3 2.6.6 5.3 1 7.9l.9 7.2c.4 3.8.8 7.6.7 11.5-.2 4.5-.8 8.9-2.4 13.1-.1.3-.2.7-.1 1-5 6-11.1 10.7-17.8 14.6-4.2 2.5-8.6 4.5-13 6.3-.3.1-.6.2-.9.1 1.7-1.2 3.4-2.4 5.1-3.7 4.5-3.3 8.4-7.1 11.9-11.5 2.6-3.3 4.9-6.8 6.7-10.5 2.6-5.2 4.2-10.7 5.3-16.4.8-4.1 1.2-8.2 1.8-12.3.3-2.3.5-4.6.7-6.9-.1-.2 0-.3.1-.4z"/><path d="M124 38c.6 1.3 1.5 1.6 2.5 1.4.8-.2 1.3-.9 1.4-1.7.2-1.1-.6-1.8-1.5-2.4 1.2-1 3.7-.7 5 .4 2.4 2.1 2.3 4.4 1.3 6.1-1.5 2.6-3.9 3-6.3 2.1-2.1-.6-3.1-2.7-2.4-5.9z"/></svg>