<svg id="Слой_1" xmlns="http://www.w3.org/2000/svg" viewBox="0 0 198.4 198.4"><style>.st0{fill:#00b1ba}.st1{fill:#fff}.st2{fill:#a26ad3}.st3{fill:#008ddb}.st4{fill:#00e0d5}.st5{fill:#45ffe8}.st6{fill:#0054af}.st7{fill:#2bbcfc}</style><path class="st0" d="M112.6 78.2c7.4-14.4-2.7-28.6 7.7-40.1 7.8-8.7 25.6-3.1 35-5.5-5.5 3.7-19.2 6-26.1 13.8-7.1 7.8-5 20.9-16.6 31.8z"/><circle cx="133.9" cy="43.9" r="4.7"/><circle class="st1" cx="132.3" cy="42.7" r="1.7"/><path class="st2" d="M109.7 100.8c-40.1-2.1-61.8 44.3-61.8 44.3 17.5-20.4 45.9-21.3 61.8-44.3z"/><path class="st3" d="M195.3 19.4s-46 9.9-60.6 45.4c-4.5 11-4.9 24.9-7.7 38-1.8 8.5-3.9 16.4-9.8 23.9 0 0-7.5 11-26.4 21 37.5-11.9 50.2-38.5 52.8-57.5 1.2-9 2.2-24.6 4.5-30.7 11.1-28.7 47.2-40.1 47.2-40.1z"/><path class="st4" d="M116.6 94.8C57.5 98.7 17.3 38.1 4.5 2.8c34.9 53.2 98 50.3 112.1 92z"/><path class="st0" d="M24.5 55.4s26.8 43.3 65.7 43.3c6.2 0 12.8-1.1 19.5-3.7-25.9-.5-48-13.4-65.5-30.5-7.5-1.9-14.4-4.5-19.7-9.1z"/><path class="st5" d="M44.3 64.5c16.5 16.7 39.5 30 65.5 30.5-15-25.6-43.4-25-65.5-30.5z"/><path class="st6" d="M127 102.8s-9.8 5.8-19.8 10.8c-30.2 15.1-64.3 24.6-78 83.1 15.8-42.5 48.4-51.9 75.4-63.9 4.4-1.9 8.6-3.9 12.6-6.1 5.6-7.6 8.2-15.7 9.8-23.9z"/><path class="st7" d="M144.9 78.2c-5.5 12.9-11.4 19.8-17.9 24.6-1.6 8.2-4.2 16.3-9.8 23.9 11.7-6.5 21.2-15 25.4-31 .4-1.8.7-3.7.9-5.5.5-3.4.9-7.6 1.4-12z"/></svg>